<?xml version="1.0" encoding="utf-8"?>
<!-- Generator: Adobe Illustrator 16.0.0, SVG Export Plug-In . SVG Version: 6.00 Build 0)  -->
<!DOCTYPE svg PUBLIC "-//W3C//DTD SVG 1.1//EN" "http://www.w3.org/Graphics/SVG/1.1/DTD/svg11.dtd">
<svg version="1.1" id="Layer_1" xmlns="http://www.w3.org/2000/svg" xmlns:xlink="http://www.w3.org/1999/xlink" x="0px" y="0px"
	 width="522.338px" height="144px" viewBox="0 0 522.338 144" enable-background="new 0 0 522.338 144" xml:space="preserve">
<g>
	<linearGradient id="SVGID_1_" gradientUnits="userSpaceOnUse" x1="507.083" y1="59.1538" x2="31.0831" y2="-63.8464">
		<stop  offset="0" style="stop-color:#F7941E"/>
		<stop  offset="1" style="stop-color:#E65043"/>
	</linearGradient>
	<path fill="url(#SVGID_1_)" d="M486.338,76.773v7.2h-43.199c-7.95,0-14.4-6.45-14.4-14.4v-43.2c0-7.95,6.45-14.4,14.4-14.4h43.199
		v7.2c0,7.95-6.44,14.4-14.399,14.4c7.959,0,14.399,6.45,14.399,14.4c0,7.95-6.44,14.4-14.399,14.4
		C479.897,62.374,486.338,68.824,486.338,76.773"/>
	<linearGradient id="SVGID_2_" gradientUnits="userSpaceOnUse" x1="502.4775" y1="76.9766" x2="26.4779" y2="-46.0236">
		<stop  offset="0" style="stop-color:#F7941E"/>
		<stop  offset="1" style="stop-color:#E65043"/>
	</linearGradient>
	<path fill="url(#SVGID_2_)" d="M425.318,26.374v14.4c0,7.95-6.439,14.4-14.399,14.4c7.96,0,14.399,6.45,14.399,14.4
		s-6.439,14.399-14.399,14.399h-43.2v-72h43.2C418.879,11.974,425.318,18.424,425.318,26.374 M410.919,40.774v-21.6h-14.4v21.6
		c0,3.98,3.23,7.2,7.2,7.2C407.698,47.974,410.919,44.754,410.919,40.774 M410.919,69.574c0-3.98-3.221-7.2-7.2-7.2
		c-3.97,0-7.2,3.22-7.2,7.2c0,3.979,3.23,7.2,7.2,7.2C407.698,76.774,410.919,73.554,410.919,69.574"/>
	<linearGradient id="SVGID_3_" gradientUnits="userSpaceOnUse" x1="496.9922" y1="98.2051" x2="20.9925" y2="-24.7951">
		<stop  offset="0" style="stop-color:#F7941E"/>
		<stop  offset="1" style="stop-color:#E65043"/>
	</linearGradient>
	<path fill="url(#SVGID_3_)" d="M337.68,26.374v43.2c0,7.95-6.451,14.4-14.4,14.4h-43.2v-72h43.2
		C331.229,11.974,337.68,18.424,337.68,26.374"/>
	<linearGradient id="SVGID_4_" gradientUnits="userSpaceOnUse" x1="493.0566" y1="113.4326" x2="17.0565" y2="-9.5677">
		<stop  offset="0" style="stop-color:#F7941E"/>
		<stop  offset="1" style="stop-color:#E65043"/>
	</linearGradient>
	<path fill="url(#SVGID_4_)" d="M276.659,47.974v36h-43.2c-7.96,0-14.401-6.45-14.401-14.4v-57.6h28.801v36H276.659z"/>
	<linearGradient id="SVGID_5_" gradientUnits="userSpaceOnUse" x1="490.1387" y1="124.7256" x2="14.1388" y2="1.7254">
		<stop  offset="0" style="stop-color:#F7941E"/>
		<stop  offset="1" style="stop-color:#E65043"/>
	</linearGradient>
	<path fill="url(#SVGID_5_)" d="M215.639,11.974v57.6c0,7.95-6.449,14.4-14.4,14.4h-28.799c-7.951,0-14.401-6.45-14.401-14.4v-57.6
		h14.401c0,7.95,6.439,14.4,14.399,14.4c7.95,0,14.4-6.45,14.4-14.4H215.639z"/>
	<linearGradient id="SVGID_6_" gradientUnits="userSpaceOnUse" x1="485.9268" y1="141.0264" x2="9.9267" y2="18.0261">
		<stop  offset="0" style="stop-color:#F7941E"/>
		<stop  offset="1" style="stop-color:#E65043"/>
	</linearGradient>
	<path fill="url(#SVGID_6_)" d="M154.619,26.374v43.2c0,7.95-6.449,14.4-14.399,14.4h-28.8c-7.95,0-14.401-6.45-14.401-14.4v-43.2
		c0-7.95,6.451-14.4,14.401-14.4h28.8C148.17,11.974,154.619,18.424,154.619,26.374"/>
	<linearGradient id="SVGID_7_" gradientUnits="userSpaceOnUse" x1="482.5" y1="154.2871" x2="6.5003" y2="31.287">
		<stop  offset="0" style="stop-color:#F7941E"/>
		<stop  offset="1" style="stop-color:#E65043"/>
	</linearGradient>
	<path fill="url(#SVGID_7_)" d="M93.6,62.374v21.6h-43.2c-7.95,0-14.4-6.45-14.4-14.4v-43.2c0-7.95,6.45-14.4,14.4-14.4h43.2v21.6
		c-7.95,0-14.4,6.45-14.4,14.4C79.2,55.924,85.649,62.374,93.6,62.374"/>
	<linearGradient id="SVGID_8_" gradientUnits="userSpaceOnUse" x1="463.665" y1="227.1768" x2="-12.3346" y2="104.1766">
		<stop  offset="0" style="stop-color:#F7941E"/>
		<stop  offset="1" style="stop-color:#E65043"/>
	</linearGradient>
	<path fill="url(#SVGID_8_)" d="M58.418,127.353H41.927l-2.166,4.674H36l12.386-26.596h3.572l12.385,26.596h-3.76L58.418,127.353z
		 M43.523,123.934h13.298l-6.65-14.362L43.523,123.934z"/>
	<linearGradient id="SVGID_9_" gradientUnits="userSpaceOnUse" x1="466.4346" y1="216.4609" x2="-9.5659" y2="93.4606">
		<stop  offset="0" style="stop-color:#F7941E"/>
		<stop  offset="1" style="stop-color:#E65043"/>
	</linearGradient>
	<path fill="url(#SVGID_9_)" d="M85.889,132.026h-3.42V105.43h10.221c5.167,0,8.967,3.8,8.967,8.93c0,3.608-1.862,6.496-4.711,7.94
		l7.864,9.727h-4.483l-7.03-8.739h-0.607h-6.801V132.026z M90.562,119.868c7.669,0,7.675-3.04,7.675-5.509
		c0-3.23-2.508-5.511-5.547-5.511h-6.801v11.02H90.562z"/>
	<linearGradient id="SVGID_10_" gradientUnits="userSpaceOnUse" x1="469.2803" y1="205.3828" x2="-6.698" y2="82.3882">
		<stop  offset="0" style="stop-color:#F7941E"/>
		<stop  offset="1" style="stop-color:#E65043"/>
	</linearGradient>
	<path fill="url(#SVGID_10_)" d="M133.993,105.43c3.762,0,6.877,1.482,9.347,3.763l-1.558,3.229
		c-1.899-2.013-4.521-3.572-7.94-3.572c-5.472,0-9.651,3.99-9.651,9.879c0,5.89,4.179,9.88,9.651,9.88
		c1.595,0,3.077-0.267,4.901-1.103l0.607,3.419c-2.128,0.76-3.723,1.103-5.508,1.103c-7.22,0-13.071-5.737-13.071-13.299
		C120.771,111.167,126.547,105.43,133.993,105.43"/>
	<linearGradient id="SVGID_11_" gradientUnits="userSpaceOnUse" x1="471.7002" y1="196.0293" x2="-4.2826" y2="73.0335">
		<stop  offset="0" style="stop-color:#F7941E"/>
		<stop  offset="1" style="stop-color:#E65043"/>
	</linearGradient>
	<polygon fill="url(#SVGID_11_)" points="183.568,105.43 183.568,132.026 180.149,132.026 180.149,120.438 164.951,120.438 
		164.951,132.026 161.532,132.026 161.532,105.43 164.951,105.43 164.951,117.018 180.149,117.018 180.149,105.43 	"/>
	<linearGradient id="SVGID_12_" gradientUnits="userSpaceOnUse" x1="473.7988" y1="187.8457" x2="-2.1549" y2="64.8574">
		<stop  offset="0" style="stop-color:#F7941E"/>
		<stop  offset="1" style="stop-color:#E65043"/>
	</linearGradient>
	<rect x="204.607" y="105.43" fill="url(#SVGID_12_)" width="3.419" height="26.597"/>
	<linearGradient id="SVGID_13_" gradientUnits="userSpaceOnUse" x1="476.1455" y1="178.877" x2="0.145" y2="55.8766">
		<stop  offset="0" style="stop-color:#F7941E"/>
		<stop  offset="1" style="stop-color:#E65043"/>
	</linearGradient>
	<polygon fill="url(#SVGID_13_)" points="239.842,108.85 239.842,132.026 236.422,132.026 236.422,108.85 225.975,108.85 
		225.975,105.431 250.328,105.431 250.328,108.85 	"/>
	<linearGradient id="SVGID_14_" gradientUnits="userSpaceOnUse" x1="478.2197" y1="170.8516" x2="2.2205" y2="47.8515">
		<stop  offset="0" style="stop-color:#F7941E"/>
		<stop  offset="1" style="stop-color:#E65043"/>
	</linearGradient>
	<polygon fill="url(#SVGID_14_)" points="284.676,105.43 284.676,108.849 271.758,108.849 271.758,117.018 284.676,117.018 
		284.676,120.438 271.758,120.438 271.758,128.607 284.676,128.607 284.676,132.026 268.338,132.026 268.338,105.43 	"/>
	<linearGradient id="SVGID_15_" gradientUnits="userSpaceOnUse" x1="480.6953" y1="161.2344" x2="4.7179" y2="38.24">
		<stop  offset="0" style="stop-color:#F7941E"/>
		<stop  offset="1" style="stop-color:#E65043"/>
	</linearGradient>
	<path fill="url(#SVGID_15_)" d="M316.252,105.43c3.762,0,6.877,1.482,9.348,3.763l-1.559,3.229
		c-1.899-2.013-4.521-3.572-7.94-3.572c-5.472,0-9.65,3.99-9.65,9.879c0,5.89,4.179,9.88,9.65,9.88c1.596,0,3.077-0.267,4.901-1.103
		l0.607,3.419c-2.129,0.76-3.724,1.103-5.509,1.103c-7.219,0-13.069-5.737-13.069-13.299
		C303.031,111.167,308.806,105.43,316.252,105.43"/>
	<linearGradient id="SVGID_16_" gradientUnits="userSpaceOnUse" x1="483.4355" y1="150.668" x2="7.4348" y2="27.6675">
		<stop  offset="0" style="stop-color:#F7941E"/>
		<stop  offset="1" style="stop-color:#E65043"/>
	</linearGradient>
	<polygon fill="url(#SVGID_16_)" points="356.297,108.85 356.297,132.026 352.876,132.026 352.876,108.85 342.428,108.85 
		342.428,105.431 366.783,105.431 366.783,108.85 	"/>
	<linearGradient id="SVGID_17_" gradientUnits="userSpaceOnUse" x1="486.0693" y1="140.4463" x2="10.1028" y2="17.4547">
		<stop  offset="0" style="stop-color:#F7941E"/>
		<stop  offset="1" style="stop-color:#E65043"/>
	</linearGradient>
	<path fill="url(#SVGID_17_)" d="M408.93,105.43v14.438c0,6.915-5.243,12.158-12.158,12.158c-6.877,0-12.158-5.243-12.158-12.158
		V105.43h3.419v14.438c0,4.977,3.8,8.739,8.739,8.739c4.977,0,8.738-3.763,8.738-8.739V105.43H408.93z"/>
	<linearGradient id="SVGID_18_" gradientUnits="userSpaceOnUse" x1="490.8428" y1="122.002" x2="14.8435" y2="-0.9981">
		<stop  offset="0" style="stop-color:#F7941E"/>
		<stop  offset="1" style="stop-color:#E65043"/>
	</linearGradient>
	<polygon fill="url(#SVGID_18_)" points="486.338,105.43 486.338,108.849 473.42,108.849 473.42,117.018 486.338,117.018 
		486.338,120.438 473.42,120.438 473.42,128.607 486.338,128.607 486.338,132.026 470,132.026 470,105.43 	"/>
	<linearGradient id="SVGID_19_" gradientUnits="userSpaceOnUse" x1="488.1631" y1="132.3623" x2="12.179" y2="9.3662">
		<stop  offset="0" style="stop-color:#F7941E"/>
		<stop  offset="1" style="stop-color:#E65043"/>
	</linearGradient>
	<path fill="url(#SVGID_19_)" d="M433.069,132.026h-3.419V105.43h10.221c5.166,0,8.966,3.8,8.966,8.93
		c0,3.608-1.862,6.496-4.711,7.94l7.865,9.727h-4.483l-7.029-8.739h-0.607h-6.802V132.026z M437.743,119.868
		c7.669,0,7.675-3.04,7.675-5.509c0-3.23-2.508-5.511-5.547-5.511h-6.802v11.02H437.743z"/>
</g>
</svg>
