<?xml version="1.0" encoding="utf-8"?>
<!-- Generator: Adobe Illustrator 16.0.0, SVG Export Plug-In . SVG Version: 6.00 Build 0)  -->
<!DOCTYPE svg PUBLIC "-//W3C//DTD SVG 1.1//EN" "http://www.w3.org/Graphics/SVG/1.1/DTD/svg11.dtd">
<svg version="1.1" id="Layer_1" xmlns="http://www.w3.org/2000/svg" xmlns:xlink="http://www.w3.org/1999/xlink" x="0px" y="0px"
	 width="84.777px" height="85.333px" viewBox="0 0 84.777 85.333" enable-background="new 0 0 84.777 85.333" xml:space="preserve">
<g>
	<linearGradient id="SVGID_1_" gradientUnits="userSpaceOnUse" x1="44.27" y1="31.146" x2="55.0698" y2="31.146">
		<stop  offset="0" style="stop-color:#F6921E"/>
		<stop  offset="1" style="stop-color:#E65043"/>
	</linearGradient>
	<path fill="url(#SVGID_1_)" d="M44.27,36.546c0,2.985,2.423,5.4,5.399,5.4c2.985,0,5.4-2.415,5.4-5.4v-16.2h-10.8V36.546z"/>
	<linearGradient id="SVGID_2_" gradientUnits="userSpaceOnUse" x1="44.27" y1="58.147" x2="55.0698" y2="58.147">
		<stop  offset="0" style="stop-color:#F6921E"/>
		<stop  offset="1" style="stop-color:#E65043"/>
	</linearGradient>
	<path fill="url(#SVGID_2_)" d="M49.669,52.747c-2.977,0-5.399,2.415-5.399,5.4s2.423,5.4,5.399,5.4c2.985,0,5.4-2.416,5.4-5.4
		S52.655,52.747,49.669,52.747z"/>
	<linearGradient id="SVGID_3_" gradientUnits="userSpaceOnUse" x1="-0.5552" y1="42.6665" x2="84.7769" y2="42.6665">
		<stop  offset="0" style="stop-color:#F6921E"/>
		<stop  offset="1" style="stop-color:#E65043"/>
	</linearGradient>
	<path fill="url(#SVGID_3_)" d="M42.111,0C18.546,0-0.555,19.103-0.555,42.667s19.102,42.667,42.666,42.667
		S84.777,66.23,84.777,42.667S65.675,0,42.111,0z M65.87,36.546c0,5.962-4.83,10.8-10.8,10.8c5.97,0,10.8,4.838,10.8,10.8
		c0,5.963-4.83,10.8-10.8,10.8H22.671v-54H55.07c5.97,0,10.8,4.837,10.8,10.8V36.546z"/>
</g>
</svg>
