<?xml version="1.0" encoding="utf-8"?>
<!-- Generator: Adobe Illustrator 16.0.0, SVG Export Plug-In . SVG Version: 6.00 Build 0)  -->
<!DOCTYPE svg PUBLIC "-//W3C//DTD SVG 1.1//EN" "http://www.w3.org/Graphics/SVG/1.1/DTD/svg11.dtd">
<svg version="1.1" id="Layer_1" xmlns="http://www.w3.org/2000/svg" xmlns:xlink="http://www.w3.org/1999/xlink" x="0px" y="0px"
	 width="451.338px" height="72px" viewBox="0 0 451.338 72" enable-background="new 0 0 451.338 72" xml:space="preserve">
<g>
	<path d="M451.338,64.8V72h-43.199c-7.95,0-14.4-6.45-14.4-14.4V14.4c0-7.95,6.45-14.4,14.4-14.4h43.199v7.2
		c0,7.95-6.44,14.4-14.399,14.4c7.959,0,14.399,6.45,14.399,14.4c0,7.95-6.44,14.4-14.399,14.4
		C444.897,50.4,451.338,56.85,451.338,64.8"/>
	<path d="M390.318,14.4v14.4c0,7.95-6.439,14.4-14.399,14.4c7.96,0,14.399,6.45,14.399,14.4S383.879,72,375.919,72h-43.2V0h43.2
		C383.879,0,390.318,6.45,390.318,14.4 M375.919,28.8V7.2h-14.4v21.6c0,3.98,3.23,7.2,7.2,7.2
		C372.698,36,375.919,32.78,375.919,28.8 M375.919,57.601c0-3.98-3.221-7.2-7.2-7.2c-3.97,0-7.2,3.22-7.2,7.2
		c0,3.979,3.23,7.2,7.2,7.2C372.698,64.801,375.919,61.58,375.919,57.601"/>
	<path d="M302.68,14.4v43.2c0,7.95-6.451,14.4-14.4,14.4h-43.2V0h43.2C296.229,0,302.68,6.45,302.68,14.4"/>
	<path d="M241.659,36v36h-43.2c-7.96,0-14.401-6.45-14.401-14.4V0h28.801v36H241.659z"/>
	<path d="M180.639,0v57.6c0,7.95-6.449,14.4-14.4,14.4h-28.799c-7.951,0-14.401-6.45-14.401-14.4V0h14.401
		c0,7.95,6.439,14.4,14.399,14.4c7.95,0,14.4-6.45,14.4-14.4H180.639z"/>
	<path d="M119.619,14.4v43.2c0,7.95-6.449,14.4-14.399,14.4h-28.8c-7.95,0-14.401-6.45-14.401-14.4V14.4
		C62.019,6.45,68.47,0,76.42,0h28.8C113.17,0,119.619,6.45,119.619,14.4"/>
	<path d="M58.6,50.4V72h-43.2C7.45,72,1,65.55,1,57.6V14.4C1,6.45,7.45,0,15.399,0h43.2v21.6c-7.95,0-14.4,6.45-14.4,14.4
		C44.2,43.95,50.649,50.4,58.6,50.4"/>
</g>
</svg>
